<svg xmlns="http://www.w3.org/2000/svg" width="36" height="36" fill="none"><path fill="#fff" d="M35.95 6.799a4.796 4.796 0 0 0-3.62-4.649A3.785 3.785 0 0 0 28.9 0H14.258a3.798 3.798 0 0 0-3.353 2.004H4.847A4.8 4.8 0 0 0 .052 6.799v24.406A4.8 4.8 0 0 0 4.846 36h5.078a.527.527 0 1 0 0-1.055H4.846a3.744 3.744 0 0 1-3.74-3.74V13.488a3.744 3.744 0 0 1 3.74-3.74h8.372c1.264 0 2.432.63 3.126 1.687l1.913 2.913a4.78 4.78 0 0 0 4.008 2.164h8.89a3.744 3.744 0 0 1 3.74 3.74v10.953a3.744 3.744 0 0 1-3.74 3.74H12.034a.527.527 0 1 0 0 1.055h19.12a4.8 4.8 0 0 0 4.795-4.795V6.8ZM1.105 10.493V6.799a3.744 3.744 0 0 1 3.74-3.74h5.68a3.82 3.82 0 0 0-.074.747v1.198h-1.43a3.81 3.81 0 0 0-3.803 3.69h-.373c-1.51 0-2.86.703-3.74 1.799ZM19.14 13.77l-1.913-2.913a4.78 4.78 0 0 0-4.008-2.164H6.274A2.755 2.755 0 0 1 9.022 6.06h14.644a2.755 2.755 0 0 1 2.75 2.752v6.646h-4.151a3.729 3.729 0 0 1-3.126-1.688Zm13.568 1.946V7.321a.527.527 0 1 0-1.055 0v8.162a4.817 4.817 0 0 0-.498-.026h-3.682V8.81a3.81 3.81 0 0 0-3.806-3.807h-12.16V3.806a2.747 2.747 0 0 1 2.751-2.751h14.644c1.139 0 2.144.684 2.561 1.743.126.322.19.662.19 1.008v1.455a.527.527 0 1 0 1.055 0V3.806a3.82 3.82 0 0 0-.024-.422A3.743 3.743 0 0 1 34.894 6.8v10.457a4.81 4.81 0 0 0-2.187-1.54Z"/><path fill="#fff" d="M24.735 8.755a.527.527 0 0 0-.713.218l-1.932 3.634-1.335-1.662a.527.527 0 0 0-.822.66l1.836 2.286a.527.527 0 0 0 .877-.083l2.307-4.34a.527.527 0 0 0-.218-.713ZM4.646 19.768h8.994a.527.527 0 1 0 0-1.054H4.646a.527.527 0 1 0 0 1.054ZM4.646 21.72h8.994a.527.527 0 1 0 0-1.055H4.646a.527.527 0 1 0 0 1.055Z"/></svg>